<svg xmlns="http://www.w3.org/2000/svg" width="178" height="36" viewBox="0 0 178 36">
    <g fill="none" fill-rule="evenodd">
        <path fill="#657DA5" d="M7.723 13L15 8.822V0L0 8.595 7.723 13"/>
        <path fill="#25477B" d="M15 26.88l7.29-4.313v-.001L30 18v9.128L15.012 36 15 26.88M15 8.827L22.292 13 30 8.584 15 0v8.827"/>
        <path fill="#657DA5" d="M14.988 27.167L7.698 23 0 27.427 15 36l-.012-8.833"/>
        <path fill="#25477B" d="M8 23.104v-9.227L0 9l.024 19L8 23.104"/>
        <path fill="#91918F" d="M15 9l8 4.333V22l-8-4.333V9"/>
        <path fill="#5E5F5F" d="M16 9l-8 4.342V22l8-4.332V9"/>
        <path fill="#FFFFFE" d="M52 23.708C50.405 25.273 48.345 26 46.174 26c-5.626 0-8.151-3.857-8.174-7.912C37.978 14.033 40.636 10 46.174 10c2.082 0 4.099.771 5.67 2.336l-1.66 1.587c-1.108-1.08-2.57-1.587-4.01-1.587-3.943 0-5.737 2.887-5.715 5.73.022 2.821 1.706 5.62 5.715 5.62 1.44 0 3.035-.595 4.12-1.675L52 23.708M61.915 16.621L66.136 10H69v.107l-5.897 8.743V25h-2.376v-6.15L55 10.107V10h2.821l4.094 6.621M74.484 22.771h4.698c1.388 0 3.312-.429 3.312-2.078 0-1.607-1.858-2.336-3.29-2.336h-4.72v4.414zm0-6.557h4.72c1.88 0 2.82-.707 2.82-1.886 0-1.05-.962-2.164-2.842-2.164h-4.698v4.05zM79.182 10c2.977 0 5.326 1.307 5.326 4.285 0 1.265-.694 2.4-2.17 2.979 1.88.536 2.662 2.315 2.662 3.45C85 23.993 82.27 25 79.182 25H72V10h7.182zM101 25H90V10h10.937v2.336h-8.554v4.05h8.213v2.228h-8.213v4.029H101V25M107.411 12.204v5.435h4.585c2.002 0 2.884-1.262 2.884-2.674 0-1.349-.882-2.76-2.863-2.76h-4.606zM118 25h-2.82l-4.585-5.179h-3.184V25H105V10c2.346 0 4.67.022 7.017.022 3.486 0 5.316 2.375 5.316 4.9 0 2.14-1.12 4.236-4.09 4.664l4.498 4.986L118 25z"/>
        <path fill="#657DA5" d="M127.99 14.2l-1.959 4.779h3.896l-1.938-4.78zm3.394 8.336h-6.812L123.57 25H119l6.834-15h4.354L137 25h-4.614l-1.002-2.464zM145.278 13.386v3.6h3.154c1.124 0 1.62-.836 1.62-1.736 0-.943-.54-1.864-1.664-1.864h-3.11zM155 25h-4.71l-3.52-4.864h-1.492V25H141V10h7.388c3.868 0 5.877 2.464 5.877 5.164 0 1.843-.649 3.407-3.197 4.522L155 24.743V25zM171.478 10.257l-6.183 7.093A562.082 562.082 0 0 1 172 24.743V25h-5.334l-4.354-4.993V25H158V10h4.312v4.928c1.306-1.585 2.721-3.343 4.006-4.928h5.16v.257M176.434 7.869h-.163v.534h.158c.287 0 .367-.084.367-.278 0-.19-.133-.256-.362-.256zm.613 1.46h-.15c-.03 0-.053-.008-.066-.03-.04-.071-.071-.128-.12-.212-.123-.199-.189-.309-.29-.42a.125.125 0 0 0-.098-.048h-.052v.622c0 .044-.035.084-.08.084h-.101a.087.087 0 0 1-.085-.084V7.737c0-.044.04-.08.085-.08h.423c.375 0 .556.217.556.464 0 .233-.133.45-.432.458.083.044.269.305.468.658.021.04.008.092-.058.092zm-.547-2.113c-.688 0-1.235.556-1.235 1.284s.547 1.284 1.235 1.284c.688 0 1.235-.556 1.235-1.284s-.547-1.284-1.235-1.284zm0 2.784c-.82 0-1.5-.644-1.5-1.5s.68-1.5 1.5-1.5c.816 0 1.5.644 1.5 1.5s-.684 1.5-1.5 1.5z"/>
    </g>
</svg>
