<svg xmlns="http://www.w3.org/2000/svg" xmlns:xlink="http://www.w3.org/1999/xlink" width="120" height="43" viewBox="0 0 120 43">
    <defs>
        <path id="a" d="M0 0h120v43H0z"/>
    </defs>
    <g fill="none" fill-rule="evenodd">
        <mask id="b" fill="#fff">
            <use xlink:href="#a"/>
        </mask>
        <path fill="#F64060" d="M43.949 17.841c-.149-.493-.247-1.01-.46-1.476-.27-.591-.97-.858-1.588-.695-.654.172-.913.485-.845 1.294.06.704.22 1.406.407 2.09.137.502.348.995.598 1.453.335.617.686.623 1.016.026.455-.823.806-1.686.872-2.692m13.873.261c.012-.806-.175-1.552-.767-2.132-.328-.321-.738-.46-1.209-.314-.57.178-.878.602-.921 1.307-.083 1.366.501 2.54 1.103 3.694.31.595.604.576 1.004.026.56-.768.778-1.642.79-2.58m55.138-.819c-.016-.204-.016-.409-.05-.61-.188-1.16-1.349-1.679-2.284-.98a4.673 4.673 0 0 0-1.096 1.177c-.963 1.482-1.398 3.18-1.834 4.87-.109.423-.185.872-.176 1.307.016.811.491 1.05 1.168.612 1.405-.91 2.446-2.172 3.325-3.574.534-.853.971-1.751.947-2.802m-42.255 5.891c-.165.25-.27.422-.385.587-1.073 1.543-2.277 2.951-3.92 3.926-2.2 1.305-4.585 1.844-7.07 1.303-1.276-.278-2.463-.994-3.665-1.566-.276-.13-.428-.134-.674.012-1.03.61-2.033 1.293-3.124 1.767-1.936.842-3.975 1.313-6.083.753-1.32-.35-2.464-1.097-3.496-1.995-.732-.637-.78-.637-1.522-.024-1.335 1.103-2.877 1.814-4.49 2.4a25.25 25.25 0 0 1-6.175 1.387c-2.575.255-4.963-.183-6.706-2.308-1.396-1.702-1.77-3.676-.915-5.728.936-2.248 2.018-4.435 3.034-6.648.53-1.153 1.063-2.305 1.577-3.465.094-.213.132-.462.143-.697.02-.432.108-.906-.39-1.166-.51-.265-1.11-.217-1.483.257a12.087 12.087 0 0 0-1.23 1.913c-1.154 2.222-2.27 4.464-3.395 6.7-.844 1.677-1.672 3.361-2.524 5.034-.807 1.586-2.324 2.19-3.967 1.574-.554-.209-.901-.619-.995-1.242-.132-.885.157-1.677.47-2.469.683-1.732 1.375-3.46 2.057-5.193.366-.929.732-1.859 1.075-2.796.24-.656.313-1.351.032-1.995-.217-.496-.644-.855-1.243-.802-.655.058-1.17.401-1.416 1.011-.868 2.15-1.7 4.315-2.555 6.471-1.021 2.58-2.026 5.168-3.09 7.731-.394.948-.988 1.81-1.987 2.215a4.581 4.581 0 0 1-1.624.341c-1.7.023-3.168-.547-4.17-1.995C0 27.316-.195 26.035.19 24.679c.356-1.255.713-2.51 1.087-3.76.354-1.184.73-2.362 1.098-3.543.343-1.1.663-2.207 1.035-3.297.731-2.145 1.321-4.354 2.48-6.322.793-1.346 2.077-2.074 3.55-2.525 1.54-.472 2.852.122 4.167.778.499.249.991.514 1.503.73.714.301 1.365.11 1.942-.36.472-.386.948-.771 1.383-1.198 1.087-1.064 3.435-1.262 4.582-.023.265.286.577.526.868.785.601.532.85.587 1.544.193 1.653-.936 3.365-.807 5.048-.206.977.348 1.561 1.18 1.934 2.167.55 1.45.319 2.852-.231 4.217-1.012 2.51-2.114 4.982-3.101 7.501a44.672 44.672 0 0 0-1.5 4.58 4.145 4.145 0 0 0-.013 2.014c.242.96 1.118 1.274 2.004 1.387 1.35.172 2.674-.08 3.967-.439 1.104-.305 2.191-.682 3.27-1.073.52-.189 1.005-.478 1.502-.731.425-.216.457-.532.233-.929-.457-.81-.938-1.61-1.34-2.447-.853-1.771-1.554-3.599-1.367-5.618.163-1.768.8-3.303 2.425-4.234 2.4-1.372 4.347-.993 6.11 1.057 1.526 1.774 2.03 3.91 1.374 6.197-.366 1.28-.89 2.516-1.39 3.753-.139.342-.058.561.158.763a11.136 11.136 0 0 0 3.44 2.203c.482.197.992.344 1.503.447 1.099.221 2.119-.041 3.034-.665.436-.296.446-.573.143-.987-2.106-2.882-2.94-6.09-2.307-9.615.238-1.32.846-2.567 2.258-2.947.872-.235 1.859-.225 2.766-.109 1.475.188 2.81.779 3.716 2.053 1.087 1.529 1.365 3.202.897 5.03-.336 1.312-1.022 2.428-1.778 3.513-.299.43-.31.826.097 1.114.629.443 1.267.929 1.977 1.185 1.542.557 3.143.508 4.697.007 1.7-.55 2.895-1.681 3.576-3.36.814-2.009.824-4.112.782-6.224-.032-1.65-.09-3.299-.139-4.949-.017-.59-.111-.623-.671-.51-1.475.3-2.957.565-4.437.836-.467.085-.938.143-1.404.227-1.017.184-1.856-.235-1.913-1.429-.059-1.203-.232-2.4-.355-3.6a3.784 3.784 0 0 1-.017-.203c-.069-1.412.272-2.18 1.962-2.119 1.744.064 3.49.122 5.232.214.857.045 1.158-.172 1.215-1.026.043-.662.062-1.325.103-1.988.062-.993.288-1.23 1.293-1.19.602.024 1.206.129 1.794.262.828.187 1.262.772 1.32 1.598.046.677.027 1.36.016 2.04-.009.48.14.738.677.793 1.55.158 3.095.374 4.642.559.73.087 1.14.384 1.24.929.17.946-.033 1.595-.745 1.853-.996.362-2.026.637-3.056.892-.72.179-1.467.255-2.2.39-.49.09-.758.35-.753.904.018 2.74-.044 5.481.035 8.218.042 1.436.257 2.875.866 4.216.493 1.087 1.334 1.515 2.504 1.318 1.716-.289 3.29-.894 4.66-1.984.76-.604 1.26-1.344 1.299-2.366.068-1.87.16-3.74.27-5.607.031-.539.092-1.098.271-1.6.1-.279.465-.648.718-.655 1.402-.043 2.814-.057 4.21.065.877.076 1.48.9 1.434 1.833-.063 1.305-.231 2.606-.355 3.91-.153 1.607-.294 3.215-.464 4.82-.173 1.626 1.123 2.432 2.404 2.447 1.076.013 1.71-.39 2.167-1.53.473-1.183.754-2.464.958-3.727.289-1.794.425-3.613.638-5.42.087-.737.546-1.304 1.117-1.427.66-.142 1.525.126 1.741.732.182.506.14 1.123.077 1.678-.233 2.057-.57 4.104-.761 6.166-.119 1.266.589 2.167 1.815 2.542.61.186 1.244.333 1.877.406 1.111.128 1.898-.686 2.13-1.954.197-1.065.223-2.162.318-3.246.112-1.287.128-2.59.347-3.859.323-1.878 1.531-3.581 3.771-4.128 1.344-.328 2.7-.367 4.042-.212 2.046.237 4.187 1.633 4.841 3.992.497 1.793.3 3.525-.285 5.25-.677 2-1.915 3.558-3.644 4.744-.16.11-.252.317-.375.48.217.095.436.278.652.275 2.066-.032 4.015-.506 5.799-1.592.402-.245.84-.43 1.266-.633.39-.186.62.034.512.372-.181.567-.4 1.165-.76 1.623-1.53 1.939-3.615 2.869-6.027 3.032-1.023.069-2.062-.069-3.092-.126-.779-.043-1.555-.111-2.333-.164-.395-.026-.623.14-.722.55-.62 2.565-.947 5.174-1.268 7.79a42.866 42.866 0 0 1-.902 4.899c-.213.874-.893 1.477-1.835 1.63-.563.09-.98-.154-1.169-.68-.159-.445-.308-.91-.346-1.376a32.263 32.263 0 0 1 .195-6.873c.154-1.163.257-2.332.389-3.497.093-.81.215-1.619.291-2.431.06-.656-.09-.81-.715-.936-1.295-.259-2.59-.514-3.88-.8-.875-.196-1.557.116-2.151.721-.789.805-1.66 1.505-2.694 1.957-1.25.547-2.573.432-3.858.228-1.853-.296-3.333-1.274-4.385-2.843-.327-.487-.564-1.036-.82-1.567-.143-.297-.272-.413-.62-.235-1.23.63-2.458 1.275-3.73 1.814-1.416.601-2.918.812-4.423.391-1.468-.411-2.593-1.359-3.527-2.544-.25-.317-.497-.637-.886-1.136" mask="url(#b)"/>
    </g>
</svg>
