<svg xmlns="http://www.w3.org/2000/svg" width="170" height="166" viewBox="0 0 170 166">
    <g fill="none" fill-rule="evenodd">
        <circle cx="127.5" cy="13.5" r="13.5" fill="#F64060" fill-opacity=".8"/>
        <circle cx="8.5" cy="83.5" r="8.5" fill="#3165BD" fill-opacity=".8"/>
        <circle cx="88" cy="84" r="49" fill="#84FFFF" fill-opacity=".3"/>
        <g fill="#333">
            <path d="M133.151 18.627c-.24 0-.482-.069-.697-.211a84.617 84.617 0 0 0-1.518-.981 1.274 1.274 0 0 1-.399-1.754 1.265 1.265 0 0 1 1.749-.4c.525.331 1.047.669 1.565 1.012.584.387.745 1.176.36 1.762-.245.371-.649.572-1.06.572m32.13 43.21a1.27 1.27 0 0 1-1.211-.896c-4.085-13.27-11.661-25.283-21.908-34.742a1.275 1.275 0 0 1-.074-1.798 1.265 1.265 0 0 1 1.792-.074c10.575 9.762 18.395 22.164 22.613 35.863a1.272 1.272 0 0 1-1.212 1.648M9.268 85.772c-.7 0-1.268-.57-1.268-1.272v-.083C8 39.523 44.399 3 89.14 3c13.351 0 26.589 3.324 38.282 9.613.616.332.848 1.103.518 1.722a1.266 1.266 0 0 1-1.717.52c-11.325-6.09-24.148-9.31-37.084-9.31-43.342 0-78.603 35.381-78.603 78.872v.083a1.27 1.27 0 0 1-1.268 1.272m25.394 58.778a1.26 1.26 0 0 1-.858-.337c-10.566-9.774-18.374-22.183-22.578-35.886a1.267 1.267 0 1 1 2.424-.749c4.072 13.274 11.636 25.295 21.872 34.764.515.476.547 1.282.073 1.798-.25.272-.591.41-.933.41m11.643 8.926c-.23 0-.464-.063-.673-.196a79.244 79.244 0 0 1-1.565-1.014 1.275 1.275 0 0 1-.357-1.763 1.265 1.265 0 0 1 1.757-.358c.5.333 1.006.66 1.515.982.593.374.77 1.16.398 1.754-.24.384-.654.595-1.075.595M88.861 166c-13.38 0-26.644-3.338-38.356-9.653a1.273 1.273 0 0 1-.516-1.723c.331-.62 1.099-.852 1.717-.518 11.344 6.117 24.192 9.35 37.155 9.35 43.342 0 78.603-35.382 78.603-78.873v-.166a1.27 1.27 0 0 1 1.268-1.272c.7 0 1.268.57 1.268 1.272v.166C170 129.477 133.6 166 88.86 166"/>
            <path d="M142.966 66.946c-.55 0-1.029-.35-1.199-.87a1.27 1.27 0 0 1 .801-1.608 1.28 1.28 0 0 1 1.597.8c.214.668-.138 1.392-.802 1.608-.125.045-.265.07-.397.07M31.269 85.1h-.007A1.27 1.27 0 0 1 30 83.829v-.07c0-7.932 1.546-15.629 4.588-22.868A58.635 58.635 0 0 1 47.09 42.21a58.164 58.164 0 0 1 18.547-12.59C72.826 26.557 80.467 25 88.344 25a57.79 57.79 0 0 1 32.324 9.839 58.67 58.67 0 0 1 21.147 25.385 1.281 1.281 0 0 1-.65 1.677 1.283 1.283 0 0 1-1.66-.654c-8.898-20.472-28.979-33.705-51.155-33.705-14.913.007-28.929 5.854-39.474 16.468C38.33 54.63 32.524 68.747 32.524 83.759v.07a1.26 1.26 0 0 1-1.255 1.27m3.151 18.074a1.256 1.256 0 0 1-1.199-.87 1.269 1.269 0 0 1 .801-1.608c.65-.217 1.383.159 1.597.808.101.323.076.666-.076.971a1.252 1.252 0 0 1-1.123.699M88.656 143c-11.58 0-22.763-3.406-32.355-9.851a58.69 58.69 0 0 1-21.148-25.435 1.278 1.278 0 0 1 .656-1.672c.625-.273 1.388.032 1.66.661 8.885 20.51 28.973 33.762 51.187 33.762 14.907-.007 28.922-5.854 39.468-16.468 10.545-10.62 16.352-24.737 16.352-39.749v-.133a1.232 1.232 0 0 1 .366-.903c.233-.241.548-.375.889-.375A1.28 1.28 0 0 1 147 84.108v.14c0 7.933-1.547 15.629-4.589 22.869a58.634 58.634 0 0 1-12.5 18.678 58.158 58.158 0 0 1-18.549 12.591C104.174 141.45 96.532 143 88.656 143"/>
            <path d="M118.704 99c-.65 0-1.21-.472-1.283-1.112l-2.017-17.53c-.26-2.252-2.373-4.717-4.614-5.383l-11.876-3.53c-.684-.202-1.067-.902-.856-1.562.209-.66.936-1.03 1.617-.827l11.875 3.53c3.23.959 6.052 4.252 6.426 7.496l2.016 17.53c.079.686-.433 1.304-1.143 1.38-.049.006-.097.008-.145.008M60.296 99c-.048 0-.096-.002-.145-.007-.71-.077-1.222-.695-1.143-1.381l2.017-17.53c.373-3.244 3.195-6.537 6.424-7.497l11.876-3.53c.684-.202 1.407.167 1.617.828.21.66-.172 1.36-.855 1.562l-11.877 3.53c-2.241.666-4.354 3.13-4.612 5.383l-2.017 17.53c-.074.64-.634 1.112-1.285 1.112M89 73.5a2.503 2.503 0 0 0-2.5 2.5c0 1.379 1.121 2.5 2.5 2.5s2.5-1.121 2.5-2.5-1.121-2.5-2.5-2.5m0 7.5c-2.757 0-5-2.243-5-5s2.243-5 5-5 5 2.243 5 5-2.243 5-5 5"/>
            <path d="M88.5 102a1.25 1.25 0 0 1-1.017-.523l-6.25-8.749a1.25 1.25 0 0 1-.15-1.175l4.905-12.751a1.25 1.25 0 1 1 2.334.897l-4.664 12.124L88.5 98.6l4.863-6.807-2.299-6.896a1.249 1.249 0 1 1 2.372-.79l2.5 7.5c.127.379.063.796-.168 1.121l-6.25 8.749A1.252 1.252 0 0 1 88.5 102M72.5 99c-.828 0-1.5-.56-1.5-1.25v-12.5c0-.69.672-1.25 1.5-1.25s1.5.56 1.5 1.25v12.5c0 .69-.672 1.25-1.5 1.25M105.5 99c-.828 0-1.5-.56-1.5-1.25v-7.5c0-.69.672-1.25 1.5-1.25s1.5.56 1.5 1.25v7.5c0 .69-.672 1.25-1.5 1.25M107 85.5a1.5 1.5 0 1 1-3.001-.001A1.5 1.5 0 0 1 107 85.5M88.58 38.517c-6.998 0-12.692 5.694-12.692 12.693 0 6.998 5.694 12.692 12.693 12.692 6.998 0 12.692-5.694 12.692-12.692 0-7-5.694-12.693-12.692-12.693M89 66C80.728 66 74 59.27 74 51s6.73-15 15-15c8.271 0 15 6.73 15 15s-6.729 15-15 15M120 121.5a1.5 1.5 0 1 1-3.001-.001 1.5 1.5 0 0 1 3.001.001M97 128.5a1.5 1.5 0 1 1-3.001-.001A1.5 1.5 0 0 1 97 128.5M57.804 106.6c-.7 0-1.268.583-1.268 1.3v5.2c0 .717.568 1.3 1.268 1.3h63.392c.7 0 1.268-.583 1.268-1.3v-5.2c0-.717-.568-1.3-1.268-1.3H57.804zm63.392 10.4H57.804c-2.098 0-3.804-1.75-3.804-3.9v-5.2c0-2.15 1.706-3.9 3.804-3.9h63.392c2.098 0 3.804 1.75 3.804 3.9v5.2c0 2.15-1.706 3.9-3.804 3.9z"/>
            <path d="M77.75 124.6c-.69 0-1.25.583-1.25 1.3v5.2c0 .717.56 1.3 1.25 1.3h22.5c.69 0 1.25-.583 1.25-1.3v-5.2c0-.717-.56-1.3-1.25-1.3h-22.5zm22.5 10.4h-22.5c-2.068 0-3.75-1.75-3.75-3.9v-5.2c0-2.15 1.682-3.9 3.75-3.9h22.5c2.068 0 3.75 1.75 3.75 3.9v5.2c0 2.15-1.682 3.9-3.75 3.9zM62.749 143a1.26 1.26 0 0 1-1.239-1.12l-2.5-20.444c-.086-.7.4-1.339 1.085-1.426a1.253 1.253 0 0 1 1.395 1.11l2.5 20.444c.086.7-.4 1.339-1.085 1.426a1.18 1.18 0 0 1-.156.01M115.152 143a.984.984 0 0 1-.145-.01c-.63-.089-1.077-.74-.998-1.453l1.7-15.396c.078-.714.656-1.221 1.284-1.13.63.089 1.077.739.998 1.453l-1.7 15.396c-.073.658-.568 1.14-1.14 1.14"/>
            <path d="M90.7 130H80.3c-.718 0-1.3-.672-1.3-1.5s.582-1.5 1.3-1.5h10.4c.718 0 1.3.672 1.3 1.5s-.582 1.5-1.3 1.5"/>
        </g>
    </g>
</svg>
